<?xml version="1.0" encoding="utf-8"?>
<svg version="1.1" xmlns="http://www.w3.org/2000/svg" xmlns:xlink="http://www.w3.org/1999/xlink" x="0px" y="0px"
	 viewBox="0 0 640 640" style="enable-background:new 0 0 640 640; background-color: #f2f2f2;" xml:space="preserve">
<path style="fill:#cccccc;" d="M133.5,273.5c30.3,0,55-24.7,55-55s-24.7-55-55-55s-55,24.7-55,55S103.2,273.5,133.5,273.5z M518.5,273.5
	c30.3,0,55-24.7,55-55s-24.7-55-55-55s-55,24.7-55,55S488.2,273.5,518.5,273.5z M546,301h-55c-15.1,0-28.8,6.1-38.8,16
	c34.6,19,59.2,53.3,64.5,94h56.7c15.2,0,27.5-12.3,27.5-27.5V356C601,325.7,576.3,301,546,301z M326,301c53.2,0,96.2-43.1,96.2-96.2
	s-43.1-96.2-96.2-96.2s-96.2,43.1-96.2,96.2S272.8,301,326,301z M392,328.5h-7.1c-17.9,8.6-37.7,13.8-58.9,13.8s-40.9-5.2-58.9-13.8
	H260c-54.7,0-99,44.3-99,99v24.8c0,22.8,18.5,41.2,41.2,41.2h247.5c22.8,0,41.2-18.5,41.2-41.2v-24.8
	C491,372.8,446.7,328.5,392,328.5z M199.8,317c-10-9.9-23.6-16-38.8-16h-55c-30.3,0-55,24.7-55,55v27.5c0,15.2,12.3,27.5,27.5,27.5
	h56.6C140.5,370.3,165.1,336,199.8,317L199.8,317z"/>
</svg>
