<svg xmlns="http://www.w3.org/2000/svg" viewBox="0 0 640 640" style="background-color:#f4f4f4">
  <path d="M133.5 273.5c30.3 0 55-24.7 55-55s-24.7-55-55-55-55 24.7-55 55 24.7 55 55 55zm385 0c30.3 0 55-24.7 55-55s-24.7-55-55-55-55 24.7-55 55 24.7 55 55 55zM546 301h-55c-15.1 0-28.8 6.1-38.8 16 34.6 19 59.2 53.3 64.5 94h56.7c15.2 0 27.5-12.3 27.5-27.5V356c.1-30.3-24.6-55-54.9-55zm-220 0c53.2 0 96.2-43.1 96.2-96.2s-43.1-96.2-96.2-96.2-96.2 43.1-96.2 96.2 43 96.2 96.2 96.2zm66 27.5h-7.1c-17.9 8.6-37.7 13.8-58.9 13.8s-40.9-5.2-58.9-13.8H260c-54.7 0-99 44.3-99 99v24.8c0 22.8 18.5 41.2 41.2 41.2h247.5c22.8 0 41.2-18.5 41.2-41.2v-24.8c.1-54.7-44.2-99-98.9-99zM199.8 317c-10-9.9-23.6-16-38.8-16h-55c-30.3 0-55 24.7-55 55v27.5c0 15.2 12.3 27.5 27.5 27.5h56.6c5.4-40.7 30-75 64.7-94z" fill="#ccc"/>
</svg>
