<?xml version="1.0" encoding="utf-8"?>
<svg xmlns="http://www.w3.org/2000/svg" xmlns:xlink="http://www.w3.org/1999/xlink" viewBox="0 0 73 73">
<style type="text/css">
	.st0{fill-rule:evenodd;clip-rule:evenodd;fill:#404F54;}
	.st1{fill-rule:evenodd;clip-rule:evenodd;fill:#37BEFF;}
	.st2{fill-rule:evenodd;clip-rule:evenodd;fill:#CCCCCC;}
	.st3{fill-rule:evenodd;clip-rule:evenodd;fill:#E5E5E5;}
</style>
<polygon class="st0" points="36.6,23.3 0.6,37 0.6,59.2 36.6,45.4 "/>
<polygon class="st1" points="72.5,59.2 36.6,45.4 36.6,23.3 72.5,37 "/>
<path class="st2" d="M36.6,1.1c13.7,0,24.9,11.1,24.9,24.9c0,13.7-11.1,24.9-24.9,24.9S11.7,39.7,11.7,26 C11.7,12.2,22.9,1.1,36.6,1.1"/>
<path class="st3" d="M36.6,1.1c13.7,0,24.9,11.1,24.9,24.9S50.3,50.8,36.6,50.8c-7.9-5.3-11.1-16-11.1-24.8 C25.4,17.1,28.7,6.4,36.6,1.1"/>
<polygon class="st1" points="72.5,37 36.6,50.8 36.6,73 72.5,59.2 "/>
<polygon class="st0" points="0.6,37 36.6,50.8 36.6,73 0.6,59.2 "/>
</svg>
