<svg xmlns="http://www.w3.org/2000/svg" xml:space="preserve" style="fill-rule:evenodd;clip-rule:evenodd;stroke-linejoin:round;stroke-miterlimit:2" viewBox="0 0 116 116"><path d="M26.088 145.515h51.555l-.004 51.555H26.088v-51.555Z" style="fill:#f65314" transform="translate(-22.061 -141.704)"/><path d="M82.907 145.515h51.555c0 17.185.003 34.37-.003 51.555-17.182-.003-34.367 0-51.549 0-.006-17.185-.003-34.37-.003-51.555Z" style="fill:#7fbb41" transform="translate(-22.061 -141.704)"/><path d="M26.088 202.331c17.185.006 34.37-.002 51.555.006.003 17.185 0 34.367 0 51.552H26.088v-51.558Z" style="fill:#00a1f1" transform="translate(-22.061 -141.704)"/><path d="M82.91 202.337c17.182-.006 34.367-.003 51.552-.003v51.555H82.907c.003-17.185-.003-34.37.003-51.552Z" style="fill:#fb0" transform="translate(-22.061 -141.704)"/></svg>