<?xml version="1.0" encoding="utf-8"?>
<!-- Generator: Adobe Illustrator 22.0.1, SVG Export Plug-In . SVG Version: 6.00 Build 0)  -->
<svg version="1.1" id="Ebene_1" xmlns="http://www.w3.org/2000/svg" xmlns:xlink="http://www.w3.org/1999/xlink" x="0px" y="0px"
	 viewBox="0 0 155 155" style="enable-background:new 0 0 155 155;" xml:space="preserve">
<style type="text/css">
	.st0{fill:#C6CDCF;}
	.st1{fill:#E3E7E8;}
	.st2{fill:#F3F5F5;}
	.st3{fill:#FAFAFB;}
</style>
<polygon class="st0" points="77.7,48.9 1.4,77.9 1.4,124.9 77.7,95.7 "/>
<polygon class="st1" points="153.7,124.9 77.7,95.7 77.7,48.9 153.7,77.9 "/>
<path class="st2" d="M77.7,1.9c29,0,52.7,23.5,52.7,52.7c0,29-23.5,52.7-52.7,52.7S24.9,83.7,24.9,54.7C24.9,25.4,48.6,1.9,77.7,1.9
	"/>
<path class="st3" d="M77.7,1.9c29,0,52.7,23.5,52.7,52.7s-23.7,52.5-52.7,52.5C60.9,95.9,54.2,73.3,54.2,54.7
	C53.9,35.8,60.9,13.2,77.7,1.9"/>
<polygon class="st1" points="153.7,77.9 77.7,107.2 77.7,154.2 153.7,124.9 "/>
<polygon class="st0" points="1.4,77.9 77.7,107.2 77.7,154.2 1.4,124.9 "/>
</svg>
