<svg class="logo-background" id="logo" version="1.1"
  xmlns="http://www.w3.org/2000/svg"
  xmlns:xlink="http://www.w3.org/1999/xlink" x="0px" y="0px" viewBox="0 0 1920 512" xml:space="preserve">
  <linearGradient id="SVGID_1_" gradientUnits="userSpaceOnUse" x1="350.5099" y1="147.3397" x2="354.231" y2="424.2253">
    <stop id="startColor" offset="0" style="stop-color: #fd1414;"></stop>
    <stop id="endColor" offset="0.9942" style="stop-color: #7c0d00;"></stop>
  </linearGradient>
  <style>
  .st0 {
    fill: none;
  }

  .st1 {
    fill: url(#SVGID_1_);
  }
  </style>
  <path class="stroke st0" d="M784.08,154.77v-0.19c0-39.87-32.62-72.5-72.5-72.5H572.41c-39.87,0-72.5,32.62-72.5,72.5v72.68l-0.04,23.05 c0,0.05,0,0.1,0,0.15v0.19c0,0.04,0,0.08,0,0.12l-0.05,33.98v72.68c0,39.87,32.62,72.5,72.5,72.5H711.5 c39.87,0,72.5-32.62,72.5-72.5v-0.19c0-38.69-30.72-70.55-68.97-72.41c5.5-10.2,8.63-21.85,8.63-34.19v-0.19 c0-8.28-1.42-16.23-4.01-23.66C755.77,222.76,784.08,191.92,784.08,154.77z" stroke-dasharray="1212.830322265625" style="stroke-dashoffset: 0px; stroke-width: 0px; fill: rgb(242, 242, 242);" stroke="black" fill="rgba(242,242,242,1)"></path>
  <path class="stroke st1" d="M351.93,424.94c-39.82,0-72.4-32.58-72.4-72.4c0,0,0-198.34,0-198.34c0-39.82,32.58-72.4,72.4-72.4 c39.82,0,72.4,32.58,72.4,72.4c0,0,0,198.34,0,198.34C424.34,392.35,391.76,424.94,351.93,424.94z" stroke-dasharray="851.3619384765625" style="stroke-dashoffset: 0px; stroke-width: 0px;"></path>
  <path class="stroke st0" d="M397.31,295.79L156.18,102.18C125.1,77.22,79.31,82.3,54.41,113.46c-0.19,0.24-0.36,0.48-0.55,0.72 C43.35,126.75,37,142.91,37,160.49v195.05c0,39.82,32.58,72.4,72.4,72.4c39.82,0,72.4-32.58,72.4-72.4v-46.79 c62.41,50.11,124.98,100.36,124.98,100.36c31.08,24.96,76.88,19.88,101.77-11.28C433.45,366.66,428.39,320.75,397.31,295.79z" stroke-dasharray="1331.2803955078125" style="stroke-dashoffset: 0px; stroke-width: 0px; fill: rgb(242, 242, 242);"></path>
  <path class="stroke st0" d="M1007.22,429L1007.22,429c-39.82,0-72.4-32.58-72.4-72.4V158.4c0-39.82,32.58-72.4,72.4-72.4h0 c39.82,0,72.4,32.58,72.4,72.4v198.2C1079.62,396.42,1047.04,429,1007.22,429z" stroke-dasharray="851.0787353515625" style="stroke-dashoffset: 0px; stroke-width: 0px; fill: rgb(242, 242, 242);"></path>
  <path class="stroke st1" d="M839.05,157.63v1.59 c0,39.49,32.31,71.79,71.79,71.79h192.09c39.49,0,71.79-32.31,71.79-71.79v-1.59c0-39.49-32.31-71.79-71.79-71.79H910.84 C871.36,85.84,839.05,118.15,839.05,157.63z" stroke-dasharray="838.2069702148438" style="stroke-dashoffset: 0px; stroke-width: 0px;"></path>
  <path class="stroke st0" d="M1315.87,85.84c-1.88,0-3.7,0.05-5.5,0.12c-1.32-0.07-2.65-0.12-4-0.12h0c-39.82,0-72.4,32.58-72.4,72.4v55.97 c-0.02,4.95-0.02,10,0,15.11v56.17c-0.02,5.12-0.02,10.16,0,15.11v55.97c0,39.82,32.58,72.4,72.4,72.4h0c1.34,0,2.67-0.04,3.99-0.12 c1.8,0.07,3.62,0.12,5.5,0.12c100.17,0,181.38-76.82,181.38-171.57S1416.04,85.84,1315.87,85.84z" stroke-dasharray="999.248046875" style="stroke-dashoffset: 0px; stroke-width: 0px; fill: rgb(242, 242, 242);"></path>
  <path class="stroke st1" d="M499.79,250.91v-0.19 c0-39.87,32.62-72.5,72.5-72.5h78.8c39.87,0,72.5,32.62,72.5,72.5v0.19c0,39.87-32.62,72.5-72.5,72.5l-78.8,0 C532.41,323.4,499.79,290.78,499.79,250.91z" stroke-dasharray="613.2839965820312" style="stroke-dashoffset: 0px; stroke-width: 0px;"></path>
  <path class="stroke st1" d="M1306.37,429.07L1306.37,429.07 c39.82,0,72.4-32.58,72.4-72.4V158.32c0-39.82-32.58-72.4-72.4-72.4h0c-39.82,0-72.4,32.58-72.4,72.4v198.34 C1233.97,396.49,1266.55,429.07,1306.37,429.07z" stroke-dasharray="851.3778686523438" style="stroke-dashoffset: 0px; stroke-width: 0px;"></path>
  <path class="stroke st0" d="M1883.12,172.75v-12.68c0-42.92-35.18-78.05-78.19-78.05h-127.8c-0.46,0-0.91,0.03-1.37,0.03 c-1.55-0.1-3.11-0.17-4.69-0.17h0c-36.13,0-66.29,26.77-71.58,61.42c-0.56,3.62-0.86,7.32-0.86,11.08v198.2 c0,39.82,32.58,72.4,72.4,72.4h0c1.19,0,2.38-0.03,3.56-0.09c1.14,0.05,2.29,0.09,3.45,0.09h125.82c43.55,0,79.18-35.57,79.18-79.04 v-16.23c0-42.62-34.26-77.62-76.64-78.97C1848.74,249.97,1883.12,215.19,1883.12,172.75z" stroke-dasharray="1210.9281005859375" style="stroke-dashoffset: 0px; stroke-width: 0px; fill: rgb(242, 242, 242);"></path>
  <path class="stroke st1" d="M1671.29,425.39L1671.29,425.39 c39.82,0,72.4-32.58,72.4-72.4v-198.2c0-39.82-32.58-72.4-72.4-72.4h0c-39.82,0-72.4,32.58-72.4,72.4v198.2 C1598.89,392.81,1631.47,425.39,1671.29,425.39z" stroke-dasharray="851.0792846679688" style="stroke-dashoffset: 0px; stroke-width: 0px;"></path>
</svg>
